<svg xmlns="http://www.w3.org/2000/svg" xmlns:xlink="http://www.w3.org/1999/xlink" version="1.1" width="1000" height="1000" viewBox="0 0 1000 1000" xml:space="preserve">
<desc>Created with Fabric.js 3.5.0</desc>
<defs>
</defs>
<rect x="0" y="0" width="100%" height="100%" fill="rgba(255,250,199,0)"/>
<g transform="matrix(1 0 0 1 487.6834 135.6)" style="" id="752127">
		
<path xml:space="preserve" font-family="Lato" font-size="240" font-style="normal" font-weight="bold" style="stroke: none; stroke-width: 0; stroke-dasharray: none; stroke-linecap: butt; stroke-dashoffset: 0; stroke-linejoin: miter; stroke-miterlimit: 4; is-custom-font: none; font-file-url: none; fill: rgb(255,255,255); fill-rule: nonzero; opacity: 1; white-space: pre;" d="M-386.28 3.39L-386.28 3.39Q-384.24 7.23-382.50 11.37Q-380.76 15.51-379.08 19.71L-379.08 19.71Q-377.40 15.39-375.60 11.19Q-373.80 6.99-371.76 3.15L-371.76 3.15L-320.40-92.97Q-319.44-94.77-318.42-95.85Q-317.40-96.93-316.14-97.41Q-314.88-97.89-313.32-98.01Q-311.76-98.13-309.60-98.13L-309.60-98.13L-285.24-98.13L-285.24 75.39L-313.68 75.39L-313.68-36.69Q-313.68-39.81-313.50-43.53Q-313.32-47.25-312.96-51.09L-312.96-51.09L-365.40 47.31Q-367.20 50.67-370.08 52.53Q-372.96 54.39-376.80 54.39L-376.80 54.39L-381.24 54.39Q-385.08 54.39-387.96 52.53Q-390.84 50.67-392.64 47.31L-392.64 47.31L-445.80-51.45Q-445.32-47.49-445.14-43.71Q-444.96-39.93-444.96-36.69L-444.96-36.69L-444.96 75.39L-473.40 75.39L-473.40-98.13L-449.04-98.13Q-446.88-98.13-445.32-98.01Q-443.76-97.89-442.50-97.41Q-441.24-96.93-440.16-95.85Q-439.08-94.77-438.12-92.97L-438.12-92.97L-386.28 3.39ZM-212.40 75.39L-266.28-98.13L-239.16-98.13Q-234.96-98.13-232.14-96.15Q-229.32-94.17-228.36-90.81L-228.36-90.81L-198.84 12.99Q-197.76 16.83-196.86 21.33Q-195.96 25.83-195.12 30.87L-195.12 30.87Q-194.16 25.83-193.02 21.33Q-191.88 16.83-190.56 12.99L-190.56 12.99L-156.48-90.81Q-155.52-93.57-152.70-95.85Q-149.88-98.13-145.80-98.13L-145.80-98.13L-136.32-98.13Q-132.12-98.13-129.36-96.15Q-126.60-94.17-125.52-90.81L-125.52-90.81L-91.68 12.99Q-89.04 20.67-87.12 30.03L-87.12 30.03Q-86.28 25.35-85.38 21.03Q-84.48 16.71-83.52 12.99L-83.52 12.99L-54.00-90.81Q-53.16-93.81-50.28-95.97Q-47.40-98.13-43.32-98.13L-43.32-98.13L-18.00-98.13L-71.88 75.39L-101.04 75.39L-138.96-43.17Q-139.68-45.45-140.46-48.09Q-141.24-50.73-141.96-53.73L-141.96-53.73Q-142.68-50.73-143.46-48.09Q-144.24-45.45-144.96-43.17L-144.96-43.17L-183.24 75.39L-212.40 75.39ZM148.20-81.81L140.28-66.57Q138.96-63.93 137.22-62.85Q135.48-61.77 133.08-61.77L133.08-61.77Q130.68-61.77 127.68-63.63Q124.68-65.49 120.60-67.77Q116.52-70.05 111.06-71.91Q105.60-73.77 98.16-73.77L98.16-73.77Q91.44-73.77 86.46-72.15Q81.48-70.53 78.06-67.65Q74.64-64.77 72.96-60.75Q71.28-56.73 71.28-51.93L71.28-51.93Q71.28-45.81 74.70-41.73Q78.12-37.65 83.76-34.77Q89.40-31.89 96.60-29.61Q103.80-27.33 111.30-24.75Q118.80-22.17 126.00-18.75Q133.20-15.33 138.84-10.11Q144.48-4.89 147.90 2.67Q151.32 10.23 151.32 21.03L151.32 21.03Q151.32 32.79 147.30 43.05Q143.28 53.31 135.54 60.93Q127.80 68.55 116.64 72.93Q105.48 77.31 91.08 77.31L91.08 77.31Q82.80 77.31 74.76 75.69Q66.72 74.07 59.34 71.07Q51.96 68.07 45.54 63.87Q39.12 59.67 34.08 54.51L34.08 54.51L43.44 39.03Q44.76 37.35 46.62 36.21Q48.48 35.07 50.76 35.07L50.76 35.07Q53.76 35.07 57.24 37.53Q60.72 39.99 65.46 42.99Q70.20 45.99 76.62 48.45Q83.04 50.91 92.04 50.91L92.04 50.91Q105.84 50.91 113.40 44.37Q120.96 37.83 120.96 25.59L120.96 25.59Q120.96 18.75 117.54 14.43Q114.12 10.11 108.48 7.17Q102.84 4.23 95.64 2.19Q88.44 0.15 81.00-2.25Q73.56-4.65 66.36-8.01Q59.16-11.37 53.52-16.77Q47.88-22.17 44.46-30.27Q41.04-38.37 41.04-50.25L41.04-50.25Q41.04-59.73 44.82-68.73Q48.60-77.73 55.86-84.69Q63.12-91.65 73.68-95.85Q84.24-100.05 97.80-100.05L97.80-100.05Q113.16-100.05 126.12-95.25Q139.08-90.45 148.20-81.81L148.20-81.81ZM245.88 49.35L245.88 49.35Q255.24 49.35 262.62 46.23Q270.00 43.11 275.10 37.47Q280.20 31.83 282.90 23.79Q285.60 15.75 285.60 5.79L285.60 5.79L285.60-98.13L317.88-98.13L317.88 5.79Q317.88 21.27 312.90 34.41Q307.92 47.55 298.56 57.09Q289.20 66.63 275.88 71.97Q262.56 77.31 245.88 77.31L245.88 77.31Q229.20 77.31 215.88 71.97Q202.56 66.63 193.26 57.09Q183.96 47.55 178.98 34.41Q174.00 21.27 174.00 5.79L174.00 5.79L174.00-98.13L206.28-98.13L206.28 5.67Q206.28 15.63 208.98 23.67Q211.68 31.71 216.72 37.41Q221.76 43.11 229.14 46.23Q236.52 49.35 245.88 49.35ZM367.68-98.13L367.68-98.13Q369.84-98.13 371.28-97.95Q372.72-97.77 373.86-97.23Q375.00-96.69 376.08-95.67Q377.16-94.65 378.48-92.97L378.48-92.97L469.56 23.07Q469.08 18.87 468.90 14.85Q468.72 10.83 468.72 7.35L468.72 7.35L468.72-98.13L497.16-98.13L497.16 75.39L480.48 75.39Q476.64 75.39 474.12 74.19Q471.60 72.99 469.20 69.87L469.20 69.87L378.48-45.69Q378.84-41.85 379.02-38.07Q379.20-34.29 379.20-31.17L379.20-31.17L379.20 75.39L350.76 75.39L350.76-98.13L367.68-98.13Z"/></g>
<g transform="matrix(5.0447 0 0 5.0447 713.2499 294.6899)" id="Layer_1">
<path style="stroke: none; stroke-width: 0; stroke-dasharray: none; stroke-linecap: butt; stroke-dashoffset: 0; stroke-linejoin: miter; stroke-miterlimit: 4; is-custom-font: none; font-file-url: none; fill: rgb(252,238,33); fill-rule: nonzero; opacity: 1;" transform=" translate(-426.7, -101.25)" d="M 435.4 99.4 c 0 0.2 -0.1 0.3 -0.3 0.5 l -3.8 3.7 l 0.9 5.2 c 0 0 0 0.1 0 0.2 s 0 0.3 -0.1 0.4 s -0.2 0.2 -0.3 0.2 c -0.1 0 -0.3 0 -0.4 -0.1 l -4.7 -2.5 l -4.7 2.5 c -0.2 0.1 -0.3 0.1 -0.4 0.1 s -0.3 -0.1 -0.3 -0.2 c -0.1 -0.1 -0.1 -0.2 -0.1 -0.4 c 0 0 0 -0.1 0 -0.2 l 0.9 -5.2 l -3.8 -3.7 c -0.2 -0.2 -0.3 -0.4 -0.3 -0.5 c 0 -0.3 0.2 -0.4 0.6 -0.5 l 5.3 -0.8 l 2.4 -4.8 c 0.1 -0.3 0.3 -0.4 0.5 -0.4 s 0.4 0.1 0.5 0.4 l 2.4 4.8 l 5.3 0.8 C 435.2 99 435.4 99.1 435.4 99.4 z" stroke-linecap="round"/>
</g>
<g transform="matrix(5.0447 0 0 5.0447 831.4522 294.6896)" id="241567">
<path style="stroke: none; stroke-width: 0; stroke-dasharray: none; stroke-linecap: butt; stroke-dashoffset: 0; stroke-linejoin: miter; stroke-miterlimit: 4; is-custom-font: none; font-file-url: none; fill: rgb(252,238,33); fill-rule: nonzero; opacity: 1;" transform=" translate(-426.7, -101.25)" d="M 435.4 99.4 c 0 0.2 -0.1 0.3 -0.3 0.5 l -3.8 3.7 l 0.9 5.2 c 0 0 0 0.1 0 0.2 s 0 0.3 -0.1 0.4 s -0.2 0.2 -0.3 0.2 c -0.1 0 -0.3 0 -0.4 -0.1 l -4.7 -2.5 l -4.7 2.5 c -0.2 0.1 -0.3 0.1 -0.4 0.1 s -0.3 -0.1 -0.3 -0.2 c -0.1 -0.1 -0.1 -0.2 -0.1 -0.4 c 0 0 0 -0.1 0 -0.2 l 0.9 -5.2 l -3.8 -3.7 c -0.2 -0.2 -0.3 -0.4 -0.3 -0.5 c 0 -0.3 0.2 -0.4 0.6 -0.5 l 5.3 -0.8 l 2.4 -4.8 c 0.1 -0.3 0.3 -0.4 0.5 -0.4 s 0.4 0.1 0.5 0.4 l 2.4 4.8 l 5.3 0.8 C 435.2 99 435.4 99.1 435.4 99.4 z" stroke-linecap="round"/>
</g>
<g transform="matrix(5.0447 0 0 5.0447 947.9316 294.6896)" id="409761">
<path style="stroke: none; stroke-width: 0; stroke-dasharray: none; stroke-linecap: butt; stroke-dashoffset: 0; stroke-linejoin: miter; stroke-miterlimit: 4; is-custom-font: none; font-file-url: none; fill: rgb(252,238,33); fill-rule: nonzero; opacity: 1;" transform=" translate(-426.7, -101.25)" d="M 435.4 99.4 c 0 0.2 -0.1 0.3 -0.3 0.5 l -3.8 3.7 l 0.9 5.2 c 0 0 0 0.1 0 0.2 s 0 0.3 -0.1 0.4 s -0.2 0.2 -0.3 0.2 c -0.1 0 -0.3 0 -0.4 -0.1 l -4.7 -2.5 l -4.7 2.5 c -0.2 0.1 -0.3 0.1 -0.4 0.1 s -0.3 -0.1 -0.3 -0.2 c -0.1 -0.1 -0.1 -0.2 -0.1 -0.4 c 0 0 0 -0.1 0 -0.2 l 0.9 -5.2 l -3.8 -3.7 c -0.2 -0.2 -0.3 -0.4 -0.3 -0.5 c 0 -0.3 0.2 -0.4 0.6 -0.5 l 5.3 -0.8 l 2.4 -4.8 c 0.1 -0.3 0.3 -0.4 0.5 -0.4 s 0.4 0.1 0.5 0.4 l 2.4 4.8 l 5.3 0.8 C 435.2 99 435.4 99.1 435.4 99.4 z" stroke-linecap="round"/>
</g>
</svg>